<?xml version="1.0" encoding="UTF-8"?><svg id="Layer_2" xmlns="http://www.w3.org/2000/svg" viewBox="0 0 486.21 263.49"><defs><style>.cls-1,.cls-2{fill:#fff;}.cls-2{fill-rule:evenodd;}</style></defs><g id="Layer_1-2"><path class="cls-1" d="m4.88,254.88v8.3h-2v-17.98h12.46v1.57H4.88v6.58h9.64v1.54H4.88Z"/><path class="cls-1" d="m27.65,256.24v-11.04h2v10.97c0,3.57,2.4,5.7,5.73,5.7s5.7-2.13,5.7-5.68v-10.99h2.03v11.02c0,4.55-3.19,7.27-7.76,7.27s-7.7-2.67-7.7-7.24Z"/><path class="cls-1" d="m56.86,245.2h2v16.41h10.27v1.57h-12.26v-17.98Z"/><path class="cls-1" d="m79.05,254.09c0-5.73,4.51-9.27,9.47-9.27,4.25,0,7.87,2.26,8.67,5.91h-2c-.86-2.7-3.51-4.29-6.67-4.29-3.97,0-7.39,3.01-7.39,7.65s3.34,7.78,7.39,7.78c3.19,0,5.7-1.67,6.67-4.34h2c-.94,3.65-4.34,5.96-8.67,5.96-5.16,0-9.47-3.7-9.47-9.4Z"/><path class="cls-1" d="m111.88,255.5v7.68h-1.97v-17.98h8.13c4.31,0,6.42,2.18,6.42,5.11s-2.05,4.6-4.71,4.98v.02c.23.36.37.57.68,1.08l4.45,6.78h-2.31l-4.73-7.32c-.2-.31-.26-.36-.71-.36h-5.25Zm0-1.54h6.02c3.05,0,4.56-1.49,4.56-3.6s-1.54-3.6-4.59-3.6h-5.99v7.19Z"/><path class="cls-1" d="m137.18,256.24v-11.04h2v10.97c0,3.57,2.4,5.7,5.73,5.7s5.7-2.13,5.7-5.68v-10.99h2.02v11.02c0,4.55-3.19,7.27-7.76,7.27s-7.7-2.67-7.7-7.24Z"/><path class="cls-1" d="m168.3,246.48v16.7h-1.91v-17.98h3.31l7.07,16.05,7.04-16.05h3.22v17.98h-1.94v-16.7l-7.36,16.7h-2.05l-7.39-16.7Z"/><path class="cls-1" d="m217.76,245.2h2v17.98h-2v-17.98Z"/><path class="cls-1" d="m239.27,246.77h-7.27v-1.57h16.51v1.57h-7.24v16.41h-2v-16.41Z"/><path class="cls-1" d="m277.46,245.2h7.04c4.42,0,6.87,2.13,6.87,5.47s-2.54,5.5-6.9,5.5h-5.02v7.01h-2v-17.98Zm6.9,9.4c3.19,0,4.96-1.52,4.96-3.9s-1.77-3.93-4.96-3.93h-4.91v7.83h4.91Z"/><path class="cls-1" d="m314.03,258.04h-9.84l-2.31,5.14h-2.02l8.21-17.98h2.2l8.21,17.98h-2.14l-2.31-5.14Zm-.68-1.57l-4.22-9.43-4.25,9.43h8.47Z"/><path class="cls-1" d="m332.34,255.5v7.68h-1.97v-17.98h8.13c4.31,0,6.42,2.18,6.42,5.11s-2.05,4.6-4.71,4.98v.02c.23.36.37.57.68,1.08l4.45,6.78h-2.31l-4.74-7.32c-.2-.31-.26-.36-.71-.36h-5.25Zm0-1.54h6.02c3.05,0,4.56-1.49,4.56-3.6s-1.54-3.6-4.59-3.6h-5.99v7.19Z"/><path class="cls-1" d="m363.52,246.77h-7.27v-1.57h16.51v1.57h-7.24v16.41h-2v-16.41Z"/><path class="cls-1" d="m386.94,247.41v15.77h-1.94v-17.98h2.54l11.81,15.77v-15.77h1.94v17.98h-2.54l-11.81-15.77Z"/><path class="cls-1" d="m428.92,263.18h-13.6v-17.98h13.4v1.57h-11.44v6.34h10.7v1.57h-10.7v6.94h11.64v1.57Z"/><path class="cls-1" d="m443.84,255.5v7.68h-1.97v-17.98h8.13c4.31,0,6.42,2.18,6.42,5.11s-2.05,4.6-4.71,4.98v.02c.23.36.37.57.68,1.08l4.45,6.78h-2.31l-4.73-7.32c-.2-.31-.26-.36-.71-.36h-5.25Zm0-1.54h6.02c3.05,0,4.56-1.49,4.56-3.6s-1.54-3.6-4.59-3.6h-5.99v7.19Z"/><path class="cls-1" d="m468.18,257.68h1.97c.34,2.77,2.6,4.26,5.79,4.26,2.82,0,5.39-1.21,5.39-3.44,0-2.03-1.97-2.83-4.82-3.44l-2.23-.46c-3.54-.77-5.48-2.11-5.48-4.73,0-3.03,3.25-5.06,7.05-5.06,3.99,0,6.73,1.93,7.13,5.32h-1.97c-.34-2.31-2.2-3.75-5.16-3.75-2.71,0-5.11,1.36-5.11,3.37,0,1.85,1.46,2.59,4.08,3.13l2.42.54c3.65.77,6.08,2.05,6.08,4.93,0,3.47-3.68,5.14-7.39,5.14-4.25,0-7.42-1.95-7.76-5.81Z"/><rect class="cls-1" y=".08" width="64.1" height="64.08"/><path class="cls-2" d="m0,78.16v96.49c0,17.77,14.4,32.17,32.17,32.17h31.92V78.16H0Z"/><path class="cls-2" d="m298.9,206.61V37.17l-.03-5.09c0-.17.02-.33.03-.5v-.69.39c.44-17.35,14.6-31.29,32.05-31.29h0c9.4,0,18.32,4.12,24.42,11.27l66.74,77.38V0h64.1v174.53c0,17.88-14.5,32.38-32.38,32.38h0c-9.47,0-18.46-4.14-24.61-11.34l-65.45-76.54v87.59h-64.87Z"/><path class="cls-2" d="m181.47.08C124.38.08,78.1,46.36,78.1,103.45s46.28,103.37,103.37,103.37,103.37-46.28,103.37-103.37S238.55.08,181.47.08Zm0,142.56c-21.64,0-39.19-17.55-39.19-39.19s17.55-39.19,39.19-39.19,39.19,17.55,39.19,39.19-17.55,39.19-39.19,39.19Z"/></g></svg>